<svg width="34" height="34" viewBox="0 0 34 34" fill="none" xmlns="http://www.w3.org/2000/svg">
<rect width="34" height="34" rx="10" fill="#ECE3D8"/>
<path d="M20 23.7499V22.2499C20 20.5942 18.6557 19.2499 17 19.2499H12.5C10.8443 19.2499 9.5 20.5942 9.5 22.2499V23.7499M20 10.3459C21.3232 10.689 22.2471 11.883 22.2471 13.2499C22.2471 14.6168 21.3232 15.8109 20 16.1539M24.5 23.7499V22.2499C24.499 20.8828 23.5737 19.6892 22.25 19.3474" stroke="#3A342F" stroke-width="1.5" stroke-linecap="round" stroke-linejoin="round"/>
<path d="M11.75 13.25C11.75 14.9057 13.0943 16.25 14.75 16.25C16.4057 16.25 17.75 14.9057 17.75 13.25C17.75 11.5943 16.4057 10.25 14.75 10.25C13.0943 10.25 11.75 11.5943 11.75 13.25V13.25" stroke="#3A342F" stroke-width="1.5" stroke-linecap="round" stroke-linejoin="round"/>
</svg>
