<svg width="34" height="34" viewBox="0 0 34 34" fill="none" xmlns="http://www.w3.org/2000/svg">
<rect width="34" height="34" rx="10" fill="#ECE3D8"/>
<path d="M20 15.5C20 16.3279 19.3279 17 18.5 17H13.121C12.7232 17.0001 12.3417 17.1582 12.0605 17.4395L10.409 19.091C10.2567 19.2433 10.0277 19.2888 9.82873 19.2064C9.62977 19.124 9.50003 18.9299 9.5 18.7145V11C9.5 10.1721 10.1721 9.5 11 9.5H18.5C19.3279 9.5 20 10.1721 20 11V15.5M23 14.75C23.8279 14.75 24.5 15.4221 24.5 16.25V23.9645C24.5 24.1799 24.3702 24.374 24.1713 24.4564C23.9723 24.5388 23.7433 24.4933 23.591 24.341L21.9395 22.6895C21.6583 22.4082 21.2768 22.2501 20.879 22.25H15.5C14.6721 22.25 14 21.5779 14 20.75V20" stroke="#3A342F" stroke-width="1.5" stroke-linecap="round" stroke-linejoin="round"/>
</svg>
