<svg viewBox="0 0 200 200" xmlns="http://www.w3.org/2000/svg" fill="none">
  <rect x="20" y="20" width="160" height="160" rx="28" fill="rgba(255,255,255,0.04)" stroke="#8B5CF6" stroke-width="3"/>
  <path d="M80 110c-4 0-8-4-8-9V76c0-5 4-9 8-9h2c4 0 8 4 8 9v10h6V70c0-6 4-10 9-10h1c5 0 9 4 9 10v23h6c4 0 7 3 7 7v3c0 4-3 7-7 7H80z" stroke="#22D3EE" stroke-width="4" stroke-linecap="round" stroke-linejoin="round"/>
  <path d="M74 135c10-8 42-8 52 0" stroke="#38BDF8" stroke-width="4" stroke-linecap="round"/>
</svg>
